<?xml version="1.0" encoding="utf-8"?>
<!-- Generator: Adobe Illustrator 19.0.0, SVG Export Plug-In . SVG Version: 6.00 Build 0)  -->
<svg version="1.1" id="Layer_1" xmlns="http://www.w3.org/2000/svg" xmlns:xlink="http://www.w3.org/1999/xlink" x="0px" y="0px"
	 viewBox="-438 256.9 82.4 48.1" style="enable-background:new -438 256.9 82.4 48.1;" xml:space="preserve">
<style type="text/css">
	.st0{fill:none;}
	.st1{enable-background:new    ; fill: #FFFFFF;}
</style>
<path class="st1" id="XMLID_720_" d="M-360.7,256.9c-2.1-0.5-4,3.7-6.6,5.1c-2.6,1.4-70.7,39.8-70.7,39.8l7.7,3.2l70.1-39.3
	C-357.5,263.9-358.6,257.4-360.7,256.9z"/>
<path class="st1" id="XMLID_42_" d="M-432.9,256.9c2.1-0.5,4,3.7,6.6,5.1c2.6,1.4,70.7,39.9,70.7,39.9l-7.7,3.2l-70.1-39.4
	C-436.1,263.9-435,257.4-432.9,256.9z"/>
<rect id="XMLID_15_" x="-431.2" y="278.9" class="st0" width="68.6" height="13.3"/>
<g id="XMLID_732_" class="st1">
	<path d="M-425.6,287.5v-6.9l-1.4,1.6l-1-1.2l2.7-3h1.6v9.5H-425.6z"/>
	<path d="M-421.1,286.7l0.8-1.5c0.5,0.5,1,0.7,1.7,0.7c1.4,0,2.2-1.3,2.2-2.7c0-0.1,0-0.1,0-0.2c-0.4,0.6-1.3,1.2-2.2,1.2
		c-1.5,0-2.9-1.1-2.9-3.1c0-1.8,1.3-3.2,3.3-3.2c2.6,0,3.7,2.2,3.7,4.9c0,2.9-1.5,4.9-4,4.9C-419.6,287.7-420.5,287.3-421.1,286.7z
		 M-416.4,281.6c-0.1-0.9-0.5-1.9-1.7-1.9c-1,0-1.5,0.7-1.5,1.4c0,1,0.8,1.4,1.6,1.4C-417.5,282.5-416.8,282.2-416.4,281.6z"/>
	<path d="M-377.1,287.5l3.1-7.7h-4.3V278h6.5v1.4l-3.2,8.1H-377.1z"/>
	<path d="M-370.1,287.5v-1.6c3.5-2.9,4.5-3.8,4.5-5c0-0.8-0.7-1.2-1.4-1.2c-1,0-1.7,0.4-2.3,1.1l-1-1.3c0.8-1.1,2.1-1.5,3.3-1.5
		c1.8,0,3.3,1.1,3.3,3c0,1.6-1.2,3-3.4,4.8h3.5v1.8H-370.1z"/>
</g>
</svg>
