<?xml version="1.0" encoding="utf-8"?>
<!-- Generator: Adobe Illustrator 18.1.0, SVG Export Plug-In . SVG Version: 6.00 Build 0)  -->
<svg version="1.1" id="Ebene_1" xmlns="http://www.w3.org/2000/svg" xmlns:xlink="http://www.w3.org/1999/xlink" x="0px" y="0px"
	 viewBox="3939.5 0 8503.9 8503.9" enable-background="new 3939.5 0 8503.9 8503.9" xml:space="preserve">
<path fill="#FFFFFF" d="M3939.5,0v8503.9h8503.9V0H3939.5z M9165.2,5226.3c-60.2,60.2-160.6,60.2-230.9-10l-742.9-742.9
	l-752.3,752.3c-60.2,60.2-160.6,60.2-220.9,0c-60.2-60.2-60.2-160.6,0-220.9l752.3-752.3l-752.9-752.9
	c-60.2-60.2-60.2-160.6,0-220.9s160.6-60.2,220.9,0l752.9,752.9l753.5-753.5c60.2-60.2,160.6-60.2,220.9,0
	c60.2,60.2,60.2,160.6-10,230.9l-743.5,743.5l752.9,752.9C9225.5,5065.7,9225.5,5166.1,9165.2,5226.3z"/>
</svg>
