<?xml version="1.0" encoding="utf-8"?>
<!-- Generator: Adobe Illustrator 19.0.0, SVG Export Plug-In . SVG Version: 6.00 Build 0)  -->
<svg version="1.1" id="Layer_1" xmlns="http://www.w3.org/2000/svg" xmlns:xlink="http://www.w3.org/1999/xlink" x="0px" y="0px"
	 viewBox="370.3 163.5 219.5 225.3" style="enable-background:new 370.3 163.5 219.5 225.3;" xml:space="preserve">
<style type="text/css">
	.st0{fill:#FFFFFF;}
</style>
<g id="XMLID_2_">
	<g id="XMLID_33_">
		<path id="XMLID_3_" class="st0" d="M437.2,228.2l40.9,93.3l40.3-93.3h29.3L490.2,361L478,388.8l-12.3-27.9l-57.9-132.8
			L437.2,228.2L437.2,228.2z M407.8,228.2h29.3H407.8z"/>
	</g>
	<g id="XMLID_35_">
		<path class="st0" d="M403.5,219.7h32.4l-9.9-23.5h-30.8c0,0-23.9,0.2-13.9-32.2C381.3,164,345.3,219.7,403.5,219.7z"/>
	</g>
	<g id="XMLID_26_">
		<path class="st0" d="M553.8,219.7h-32.4l9.9-23.5H562c0,0,22.8,1.4,13.9-32.2C576.3,164,618.4,219.7,553.8,219.7z"/>
	</g>
	<g id="XMLID_37_">
		<path class="st0" d="M412.7,190.7h16.6l12.3,28.9h36.2v-56.1C477.9,163.6,436.2,165.4,412.7,190.7z"/>
	</g>
	<g id="XMLID_38_">
		<path class="st0" d="M544.8,190.7h-16.6l-12.3,28.9h-14.1l18.5-47.4C520,172.3,529,172.6,544.8,190.7z"/>
	</g>
	<g id="XMLID_36_">
		<polygon class="st0" points="477.9,219.7 477.9,323.5 441.7,295.6 441.7,219.7 		"/>
	</g>
	<g id="XMLID_39_">
		<polygon class="st0" points="501.7,219.7 486.9,252.8 486.9,311.9 501.7,311.9 501.7,253.9 515.8,219.7 		"/>
	</g>
</g>
</svg>
