<?xml version="1.0" encoding="utf-8"?>
<!-- Generator: Adobe Illustrator 19.0.0, SVG Export Plug-In . SVG Version: 6.00 Build 0)  -->
<svg version="1.1" id="Layer_1" xmlns="http://www.w3.org/2000/svg" xmlns:xlink="http://www.w3.org/1999/xlink" x="0px" y="0px"
	 viewBox="396 176.2 202.5 207.7" style="enable-background:new 396 176.2 202.5 207.7;" xml:space="preserve">
<g id="XMLID_2_">
	<g id="XMLID_33_">
		<path id="XMLID_3_" d="M457.6,235.7l37.7,86.1l37.2-86.1h27l-53.1,122.5l-11.2,25.7L484,358.2l-53.4-122.5L457.6,235.7
			L457.6,235.7z M430.6,235.7h27H430.6z"/>
	</g>
	<g id="XMLID_35_">
		<path d="M426.6,227.9h29.9l-9.2-21.7h-28.4c0,0-22,0.2-12.8-29.7C406.1,176.5,372.9,227.9,426.6,227.9z"/>
	</g>
	<g id="XMLID_26_">
		<path d="M565.3,227.9h-29.9l9.2-21.7h28.2c0,0,21,1.3,12.8-29.7C586,176.5,624.9,227.9,565.3,227.9z"/>
	</g>
	<g id="XMLID_37_">
		<path d="M435.1,201.2h15.4l11.3,26.7h33.4v-51.7C495.2,176.1,456.8,177.8,435.1,201.2z"/>
	</g>
	<g id="XMLID_38_">
		<path d="M556.9,201.2h-15.4l-11.3,26.7h-13l17-43.7C534.1,184.1,542.4,184.5,556.9,201.2z"/>
	</g>
	<g id="XMLID_36_">
		<polygon points="495.2,227.9 495.2,323.6 461.8,297.9 461.8,227.9 		"/>
	</g>
	<g id="XMLID_39_">
		<polygon points="517.2,227.9 503.5,258.4 503.5,313 517.2,313 517.2,259.4 530.2,227.9 		"/>
	</g>
</g>
</svg>
