<?xml version="1.0" encoding="utf-8"?>
<!-- Generator: Adobe Illustrator 19.0.0, SVG Export Plug-In . SVG Version: 6.00 Build 0)  -->
<svg version="1.1" id="Layer_1" xmlns="http://www.w3.org/2000/svg" xmlns:xlink="http://www.w3.org/1999/xlink" x="0px" y="0px"
	 viewBox="205.2 243 559.6 100.6" style="enable-background:new 205.2 243 559.6 100.6;" xml:space="preserve">
<g id="XMLID_12_">
	<g id="XMLID_4_">
		<g id="XMLID_7_">
			<path id="XMLID_27_" d="M223.7,291.1l-18.5-48h11.6l13.3,36.9l13.3-36.9H255l-18.5,48H223.7z"/>
			<path id="XMLID_29_" d="M318.1,291.1l-3-8.1h-20.6l-3,8.1h-11.6l18.5-48h12.8l18.5,48H318.1z M304.8,253.3l-7.5,20.7h15
				L304.8,253.3z"/>
			<path id="XMLID_32_" d="M362.5,291.1v-48h10.3v39h20.3v9H362.5z"/>
			<path id="XMLID_41_" d="M461.8,291.1v-8.2h-22.7v8.2h-10.2v-48h10.2V274h22.7v-31h10.3v48h-10.3V291.1z"/>
			<path id="XMLID_43_" d="M543.5,291.1l-3-8.1h-20.6l-3,8.1h-11.6l18.5-48h12.8l18.5,48H543.5z M530.2,253.3l-7.5,20.7h15
				L530.2,253.3z"/>
			<path id="XMLID_46_" d="M587.9,291.1v-48h10.3v39h20.3v9H587.9z"/>
			<path id="XMLID_48_" d="M653.8,291.1v-48h10.3v39h20.3v9H653.8z"/>
			<path id="XMLID_50_" d="M753.3,291.1l-3-8.1h-20.6l-3,8.1H715l18.5-48h12.8l18.5,48H753.3z M740,253.3l-7.5,20.7h15L740,253.3z"
				/>
		</g>
		<g id="XMLID_5_">
			<path id="XMLID_6_" d="M339.4,339.6l1.8-2.3c1.5,1.8,4.1,3.5,7.5,3.5c4.3,0,5.7-2.3,5.7-4.2c0-6.2-14.2-2.7-14.2-11.3
				c0-4,3.5-6.7,8.3-6.7c3.6,0,6.5,1.3,8.5,3.4l-1.8,2.2c-1.8-2-4.3-2.9-6.9-2.9c-2.8,0-4.9,1.5-4.9,3.8c0,5.4,14.2,2.3,14.2,11.3
				c0,3.5-2.4,7.1-8.9,7.1C344.4,343.4,341.4,341.8,339.4,339.6z"/>
			<path id="XMLID_10_" d="M398,342.9l-9.1-10.8l-2.4,2.7v8.1h-3v-24h3v12.4l10.6-12.4h3.7l-10,11.4l10.9,12.6L398,342.9L398,342.9z
				"/>
			<path id="XMLID_14_" d="M426.7,342.9v-24h3v24H426.7z"/>
			<path id="XMLID_16_" d="M486.9,331c0-7.4,5.4-12.4,12.3-12.4c4.2,0,7.2,2,9.1,4.8l-2.5,1.4c-1.4-2.1-3.9-3.5-6.6-3.5
				c-5.3,0-9.2,4-9.2,9.8c0,5.7,4,9.8,9.2,9.8c2.7,0,5.3-1.5,6.6-3.5l2.5,1.4c-2,2.8-4.9,4.8-9.1,4.8
				C492.3,343.4,486.9,338.3,486.9,331z"/>
			<path id="XMLID_18_" d="M533.4,342.9v-24h3v21.3h11.2v2.7H533.4z"/>
			<path id="XMLID_20_" d="M572.2,333.6v-14.7h3v14.6c0,4.4,2.3,7.2,6.8,7.2c4.4,0,6.8-2.8,6.8-7.2v-14.6h3v14.7
				c0,6-3.3,9.8-9.8,9.8S572.2,339.5,572.2,333.6z"/>
			<path id="XMLID_22_" d="M619,342.9v-24h10.7c4.2,0,6.7,2.5,6.7,6.1c0,3-2,5-4.2,5.5c2.6,0.4,4.7,3,4.7,5.9c0,3.9-2.6,6.5-6.9,6.5
				H619z M633.3,325.5c0-2.2-1.4-3.9-4.1-3.9H622v7.7h7.2C631.9,329.3,633.3,327.7,633.3,325.5z M633.8,336.1c0-2.2-1.5-4.1-4.4-4.1
				H622v8.3h7.4C632.2,340.3,633.8,338.7,633.8,336.1z"/>
		</g>
	</g>
</g>
</svg>
